<svg id="Layer_1" data-name="Layer 1" xmlns="http://www.w3.org/2000/svg" viewBox="0 0 1024.44 993.86">
    <title>logo</title>
    <path fill="#0E5D7C" stroke="#0E5D7C" d="M1019.18,423c-76.87-58.77-209.39-170.29-230-187.59-37.58-32-74-66.7-110.46-101.44-19.36-18.06-37.58-36.13-56.94-54.19C602.39,60.29,583,35.28,561.39,21.38,519.26-5,466.88,54.73,432.71,81.13c-30.74,23.62-62.63,48.63-93.38,73.65C339.57,147.44,74,360.44,17.06,398c-39.86,26.4-4.55,101.44,35.3,75,13.79-9.49,63.72-48.07,126.57-97.07,13.4,167.53,6.34,268.16-20.59,456.69-60.92-4.72-118.2-.43-132.22,47.4C10.5,933.17,45.39,980.68,87.95,1000.12c12.56,5.73,24.73,8.53,35.69,8.53,16.87,0,30.93-6.63,39.19-19.48,11.9-18.51,22.36-66.48,30.13-112.46l.86.08c43.52,4.69,145.32,8.83,150.52,8.83,124.55,0,249.1-8.9,325.83-47.82,36.68-18.9,74.49-48.93,74.49-96.73,0-93.41-110.09-123.44-201.26-153.46C441.09,553.12,388.82,512,388.82,474.18c0-57.83,110.09-133.45,189.05-133.45,42.26,0,66.72,22.26,66.72,55.62,0,56.71-50,43.37-50,84.51,0,20,16.68,32.25,33.36,32.25a35.39,35.39,0,0,0,15.57-3.34c4.45-2.22,67.83-36.68,67.83-113.41C711.3,318.48,646.8,274,577.87,274c-99,0-255.77,80.07-255.77,200.17,0,95.62,103.42,143.45,201.28,175.7,109,36.7,154.57,62.27,154.57,91.19,0,7.78-10.4,16.21-36.7,36.68-86.59,67.39-354.05,61.3-442.14,59.58.19-1.31.36-2.56.54-3.85,55.76-235.93,51.92-426.12,41.83-506.41C372.39,224.7,523.75,105.77,535.2,99.2c11.84,9,134.11,121.38,264.95,221.8-6.77,74.56,8.94,492.07,20.15,546.58,8.79,42.77,82.63,23.42,73.24-19.22-13.3-60.43-29.34-321.81-30-480.3,49.51,35.38,97.92,66.43,139.7,86.87C1017.45,461.87,1031.71,434.08,1019.18,423ZM129.35,967.64c-.7,1-9.31,3.4-24.84-3.73-21.81-10-50.52-37.54-40.2-72.67C68.88,875.75,89.54,871,117.86,871c10.79,0,22.71.7,35.24,1.75C145.59,916.8,136.86,956,129.35,967.64Z" transform="translate(0.44 -14.8)"/>
</svg>