<svg fill="#ffffff" stroke="#ffffff" id="Layer_1" data-name="Layer 1" xmlns="http://www.w3.org/2000/svg" viewBox="0 0 1017.04 416.67">
    <title>logotype</title>
    <path fill="#ffffff" stroke="#ffffff" d="M140.16,111.55c0-19.89,24.19-13.44,24.19-40.86,0-16.13-11.83-31.2-32.26-31.2-38.17,0-95.3,28.35-95.72,64.52-.31,27.08,29.59,46.82,79.05,63.48,44.08,14.52,97.3,24.71,97.3,69.87,0,23.11-18.28,37.63-36,46.77C139.62,302.93,73,307.72,19.2,281.29c-7.72-3.79-15.33-9-11.32-17.54,2.42-5.14,13-5.13,20.39-.68,51.86,31.38,159.52,14.55,152.21-25.72-2.5-13.75-22-26.35-74.72-44.09-47.31-15.59-97.31-38.7-97.31-84.93,0-58.06,75.81-96.77,123.65-96.77,33.33,0,64.51,21.51,64.51,59.14,0,37.1-30.64,53.76-32.79,54.84a17.2,17.2,0,0,1-7.52,1.61C148.23,127.14,140.16,121.22,140.16,111.55Z" transform="translate(-6.78 -11.55)"/><path d="M986.95,233.45c-2.41-.75-4.81-1.49-7.14-2.25-22.68-7.64-33.19-15.8-33.08-25.68.16-14.39,24.13-26.06,39.68-26.06,7.84,0,11.94,5.77,11.94,11.48,0,5.35-2.31,7-5,8.84-2.49,1.74-5.58,3.9-5.58,9a9,9,0,0,0,9.21,9,9.76,9.76,0,0,0,4.26-.93c.63-.32,15.53-8,15.53-25.91,0-18.39-15.28-28-30.36-28-22.38,0-56.21,17.73-56.21,44.46,0,21.87,23.53,32.43,44,39.17,20.64,7,30.27,12.39,31.22,17.61.59,3.26-1.06,6.26-4.89,8.9-12.08,8.31-42,10-58.4.11a11.54,11.54,0,0,0-8.73-1.39,5,5,0,0,0-3.25,2.61c-1.93,4.1.07,7.65,5.94,10.53a85.16,85.16,0,0,0,37.29,8.29c12.94,0,24.93-2.72,33.5-7.08,11.23-5.78,16.92-13.3,16.92-22.36C1023.82,244.86,1004.23,238.8,986.95,233.45Z" transform="translate(-6.78 -11.55)"/><path d="M911.42,213.87C907,186.63,887.56,162.46,855,162.46c-40.18,0-76.78,45.27-93.92,141.26-1.74-19-5-118.35-5.2-136.79,11.73,8.18,22,14.43,30.44,18.59,2.47,1.2,5.3.23,7.07-2.42s2.23-6.89-.53-9.34l-.13-.1c-8-6.14-24-18.87-54.74-44.63l-1.08-.9c-9-7.65-17.89-16.12-26.76-24.58-2.34-2.19-4.62-4.38-6.9-6.57s-4.58-4.4-6.89-6.55c-1.34-1.35-2.69-2.82-4.05-4.3-3.46-3.76-7-7.66-11-10.23-9.85-6.19-21,3.48-29.13,10.54-1.76,1.52-3.41,3-4.91,4.12-8,6.12-15.54,12.08-22.46,17.71-3,1.42-10.44,7.22-35.13,26.39-17.14,13.31-36.57,28.39-43.3,32.82-6.56,4.34-6.54,13.18-2.76,18.89a11.24,11.24,0,0,0,5.92,4.72,9.27,9.27,0,0,0,8.13-1.36c2.79-1.93,11.26-8.41,27.31-20.9,15.06,61.55-12.42,106-34,108.35-3.1.34-10.35.55-13.06-1.69C504.2,247.65,513,194.58,513,174.84c0-7.13-6-13.36-12.94-13.36-6,0-11.21,4.9-12.5,10.69-7.76,39.2-57.33,87.3-82.34,87.3-6.9,0-17.24-9.35-17.24-40.09V183.75c0-7.13-6-13.37-12.93-13.37-5.18,0-9.49,3.56-11.64,8-22,50.33-60.78,103.34-83.2,103.34-11.21,0-19.43-16-22.85-39.36-5.33-36.39.85-85.69,19-109.62a3.33,3.33,0,0,1,5.84,1c1.87,5.93.56,14.74-.53,20.21s-3.66,12.56-11.51,21.62a8,8,0,0,0-2,5.39h0a8.77,8.77,0,0,0,15.32,5.63,59.4,59.4,0,0,0,14.47-28.24c3-14.9.17-33.94-6.38-43.32-3.46-5-7.36-6.74-10.08-6.72-32.46.21-45.22,84.66-45.74,88.46-.95,4.57-11.74,112.76,44.52,111.7,34.05-.64,61.65-37.42,82.77-73.05,3,24.5,15.52,50.78,42.25,50.78,32.76,0,67.68-31.63,89.24-65.48,1.42,15.86,9.5,49.07,20.53,60.5,10.2,13.14,25.72,14.58,32.39,14.78h.86c11.31,0,25.46-6.14,35.35-17.37,4.19-4.75,18.59-24.94,20.91-40.55,5.68-38.13.24-61.14-4.49-80.74l19.66-15.67c22.4-17.53,47.49-37.16,53.78-41.76,1.06.92,2.64,2.32,4.66,4.09,10.88,9.58,33.33,29.39,57.37,47.92-.53,8.3-.27,28.64.4,51,.58,19.36,4.13,72.24,4.83,81.81,2.34,31.67,3.58,74.73,3.58,131.6,0,5.16,4.92,11.9,12.3,11.9,6.15,0,11.89-4.76,12.3-11.11,12.3-180.88,54.93-230.86,86.09-230.86,17.89,0,29.87,12.63,32.28,32.21.51,4.15.3,7.13,0,14.79-2.48,20.92-7.67,34.84-23.66,40.37-14.3,4.94-29.63.26-35.3-6.35a14.44,14.44,0,0,1-1.16-11.34,12.31,12.31,0,0,1,2.38-4.35,10.42,10.42,0,0,0,1.86-9.47A6.24,6.24,0,0,0,821,239.41a27.7,27.7,0,0,0-7.75,12.42c-2.63,9,0,17.21,1.95,21.68a21,21,0,0,0,4.61,6.55c4.86,4.71,16.11,13,35.22,13.29,37.48.52,56.29-34.52,57.29-64.88C912.31,220.3,912.22,219.44,911.42,213.87Z" transform="translate(-6.78 -11.55)"/></svg>